<svg xmlns="http://www.w3.org/2000/svg" xmlns:xlink="http://www.w3.org/1999/xlink" version="1.1" x="0px" y="0px" viewBox="0 0 100 108.914" enable-background="new 0 0 100 108.914" xml:space="preserve"><g><path d="M45.14,70.596c-1.455,1.527-3.22,3.75-5.278,6.996c-0.025,0.039-0.049,0.077-0.073,0.115c0,0-3.114-13.991-3.837-20.979   c-0.096,0.142-0.192,0.281-0.301,0.422c-0.579,0.741-1.34,1.46-2.348,2.097l-15.187,6.608c-4.751,1.827-6.761,4.567-6.761,4.567   C4.32,80.837,3.498,91.244,3.498,91.244c0.091,5.299,2.375,5.848,2.375,5.848c11.273,5.031,28.225,7.176,37.462,8.014   c0.224-11.429,3.424-27.546,3.826-29.531C46.152,73.986,45.486,71.889,45.14,70.596z"></path><path d="M88.647,70.422c0,0-2.01-2.74-6.762-4.567c0,0-9.376-2.848-14.367-6.059c-0.395-0.254-0.764-0.509-1.096-0.766   c-0.146-0.165-0.604-0.486-0.751-0.659c-0.497-0.353-0.747-0.686-1.221-1.306c-0.737,7.103-3.588,20.701-3.588,20.701   c-1.971-3.248-3.729-5.487-5.229-7.04c-0.684,2.398-1.426,3.995-2.134,5.05c2.335,8.284,3.416,27.339,3.521,29.296   c9.313-0.86,25.979-3.014,37.107-7.981c0,0,2.284-0.549,2.375-5.848C96.503,91.244,95.682,80.837,88.647,70.422z"></path><path d="M63.797,50.797c1.779-2.361,3.231-5.024,4.209-7.733c1.76-1.757,2.661-6.034,2.661-6.034   c1.168-3.272,0.825-4.945,0.287-5.787c0.166-0.496,2.968-9.171-0.991-15.86c0,0-1.406-6.326-8.855-9.137   c-6.887-4.215-17.148-1.686-17.148-1.686C31.449,6.669,28.77,21.385,28.77,21.385c-0.746,6.718,1.054,10.922,1.129,11.094   c-0.641,1.591,0.521,5.75,0.521,5.75c0.399,2.538,1.642,3.314,2.003,3.489c0.972,3.523,2.737,6.942,4.948,9.812   c0.028,0.495,0.02,1.212-0.132,2.044c1.118,3.686,4.044,10.41,10.931,13.091c0.583,0.227,1.191,0.43,1.833,0.594   c0.736-0.206,1.433-0.456,2.095-0.745c6.504-2.823,9.558-9.281,10.843-13.097c-0.066-0.439-0.105-0.906-0.111-1.407   c0.274-0.325,0.541-0.657,0.802-0.996"></path></g></svg>