<svg xmlns="http://www.w3.org/2000/svg" xmlns:xlink="http://www.w3.org/1999/xlink" version="1.1" x="0px" y="0px" viewBox="0 0 90 90" enable-background="new 0 0 90 90" xml:space="preserve"><g><path d="M44.872,20c-11.045,0-17.128,6.787-17.128,19.109c0,4.865,2.52,8.316,4.743,11.361C34.372,53.053,36,55.283,36,58v2h19v-2   c0-2.878,1.513-5.388,3.115-8.045C59.936,46.933,62,43.508,62,39.109C62,26.787,55.917,20,44.872,20z M54.689,47.89   c-1.5,2.487-3.041,5.044-3.53,8.11H50V43h-4v13h-2V43h-4v13h-0.184c-0.567-3.052-2.357-5.503-4.099-7.888   c-2.043-2.799-3.974-5.442-3.974-9.002C31.744,28.942,36.038,24,44.872,24S58,28.942,58,39.109   C58,42.396,56.392,45.064,54.689,47.89z"></path><rect x="37" y="63" width="17" height="4"></rect><rect x="37" y="69" width="17" height="4"></rect><rect x="40" y="75" width="11" height="4"></rect><rect x="43" y="7" width="4" height="8"></rect><rect x="57.5" y="10.207" transform="matrix(0.7071 0.7071 -0.7071 0.7071 27.6802 -37.8259)" width="4" height="8.586"></rect><rect x="26.207" y="12.5" transform="matrix(0.7071 0.7071 -0.7071 0.7071 19.1863 -17.3198)" width="8.586" height="4"></rect></g></svg>